<?xml version="1.0" encoding="utf-8"?>
<!-- Generator: Adobe Illustrator 22.1.0, SVG Export Plug-In . SVG Version: 6.00 Build 0)  -->
<svg fill="#848484" version="1.1" id="Layer_1" xmlns="http://www.w3.org/2000/svg" xmlns:xlink="http://www.w3.org/1999/xlink" x="0px" y="0px"
	 viewBox="0 0 36.9999924 31.9999714" style="enable-background:new 0 0 36.9999924 31.9999714;" xml:space="preserve">
<style type="text/css">
	.st0{fill-rule:evenodd;clip-rule:evenodd;}
	.st1{fill:#231F20;}
</style>
<path d="M29.5528603,17.6731281c1.7442017-0.00177,3.1646729-1.447876,3.1629028-3.239625
	c-0.0006104-1.7761841-1.4227905-3.22052-3.1693115-3.21875l-15.9608145,0.0163574l3.9847403-5.5773311
	C18.6649208,4.165071,18.5163002,2.052583,17.2219887,0.73813c-0.9703979-0.9855957-2.5481558-0.9839478-3.5166006,0.0036011
	L2.6637621,12.001008c-1.7202759,1.7542114-2.6661987,4.0849009-2.6637573,6.5637827l0.0037231,3.7528076
	c0.0012817,2.4753418,0.9519043,4.8016968,2.6732788,6.5499268c1.607605,1.6326904,3.743042,2.5907593,6.0125732,2.6981812
	l9.2514639,0.4342651c1.7442627-0.00177,3.1646729-1.447876,3.1629028-3.239563
	c-0.0005493-0.5678101-0.1452637-1.1008911-0.4036255-1.5634766c1.5482178-0.2103271,2.7449341-1.5667725,2.7432861-3.2106323
	c-0.001709-0.5665894-0.1464233-1.0996704-0.4012451-1.5634766c1.5458984-0.2127686,2.7437744-1.5679321,2.7409668-3.2105713
	c-0.0005493-0.5559082-0.1394043-1.078186-0.3848267-1.5348511L29.5528603,17.6731281z M17.2384682,17.4389362
	c0.1502075,0.1525879,0.3577271,0.246582,0.5875244,0.2463379l4.7896118-0.0048828
	c0.8322754-0.0008545,1.5093384,0.6867676,1.5101929,1.5480347c0.0008545,0.8445435-0.6771851,1.5359497-1.5071411,1.5368042
	L17.826725,20.770174c-0.4571533,0.0004272-0.8283691,0.3790283-0.8279419,0.8442383
	c0.0014648,0.232605,0.0941772,0.4436646,0.2443848,0.5961914c0.1502075,0.1525879,0.3577271,0.246582,0.5875244,0.2463379
	l2.4452515-0.0025024c0.8322754-0.0008545,1.5093384,0.6868286,1.5101929,1.5480347
	c0.0008545,0.8446045-0.6771851,1.5360107-1.5071411,1.5368652l-2.4569092,0.0025024c-0.003479,0.0012207-0.0022583,0-0.0022583,0
	h-0.0023193c-0.0023193,0-0.0023193,0-0.0023193,0c-0.0023193,0-0.0023193,0-0.0023193,0l-0.0011597,0.0011597
	c-0.0011597,0.0012207-0.0023193,0.000061-0.0023193,0.000061c-0.4477539,0.0123291-0.8060913,0.3873291-0.8044434,0.8441772
	c0.0004883,0.46521,0.3724365,0.8430176,0.8295898,0.8425293l0.100769-0.0001221
	c0.4031982-0.0004272,0.7832642,0.1590576,1.0683594,0.4486694c0.2851563,0.2896118,0.442627,0.6735229,0.4429932,1.0982056
	c-0.0015259,0.8469849-0.6771851,1.5336304-1.4684448,1.5380249l-9.2128286-0.4331055
	c-1.8545532-0.0889282-3.6019897-0.8720703-4.9173584-2.2080078c-1.4080811-1.4300537-2.1847534-3.3319702-2.1867676-5.3574829
	l-0.0037231-3.7528687c-0.0020142-2.0279541,0.7721558-3.9349985,2.1797485-5.3703623L14.87885,1.9333814
	c0.3232422-0.3295288,0.8483887-0.3300781,1.1722403-0.0011597c0.7134399,0.7245482,0.7955322,1.8898925,0.1844482,2.7208252
	l-4.9480581,6.9275508c-0.1837769,0.2567139-0.2092896,0.595459-0.0683594,0.8792725
	c0.1409912,0.2813721,0.427124,0.460083,0.7389526,0.4596558l17.5900879-0.0180054
	c0.8322144-0.0008545,1.510437,0.6879272,1.5124512,1.5480347c-0.0007324,0.4234619-0.1691284,0.8078003-0.4420166,1.0860596
	c-0.2728271,0.2781982-0.6500854,0.4503174-1.0674438,0.4508057l-11.729126,0.0120239
	c-0.4572144,0.0004883-0.8284302,0.3790293-0.8279419,0.8443003C16.9954872,17.0753498,17.0882607,17.2864094,17.2384682,17.4389362
	z M34.8241005,19.806612c-2.0610352,2.1016846-5.166748,2.7800293-7.9095459,1.7294312
	c-0.4291992-0.1641846-0.6453247-0.6505737-0.4840088-1.0872192c0.1589355-0.4367676,0.6393433-0.6567383,1.0673828-0.491394
	c2.135376,0.8173218,4.5507813,0.2911377,6.152771-1.3424072c2.2601318-2.3046875,2.2563477-6.050477-0.0083008-8.3504648
	c-1.6051636-1.630249-4.0216064-2.1514893-6.1553955-1.3297729c-0.4276733,0.1638184-0.906189-0.0551147-1.069519-0.4904175
	c-0.1175537-0.319519-0.0335083-0.6680293,0.1889648-0.8948359c0.0808105-0.0823975,0.1792603-0.149353,0.2929077-0.1936035
	c2.7419434-1.0549316,5.848938-0.3829346,7.9141235,1.7144771C37.7246742,12.02707,37.729435,16.8440266,34.8241005,19.806612z"/>
</svg>
