<?xml version="1.0" encoding="utf-8"?>
<!-- Generator: Adobe Illustrator 22.1.0, SVG Export Plug-In . SVG Version: 6.00 Build 0)  -->
<svg fill="#848484" version="1.1" id="Layer_1" xmlns="http://www.w3.org/2000/svg" xmlns:xlink="http://www.w3.org/1999/xlink" x="0px" y="0px"
	 viewBox="0 0 20.9999943 94" style="enable-background:new 0 0 20.9999943 94;" xml:space="preserve">
<style type="text/css">
	.st0{fill-rule:evenodd;clip-rule:evenodd;}
	.st1{fill:#231F20;}
</style>
<path d="M20.2103271,92.4794312l-0.0014648-0.0133057c-0.9984131,0.0962524-4.3209839-0.1747437-6.880127-2.6116943
	c-2.1911621-2.0802002-3.3018799-5.2781372-3.3018799-9.5021973l-0.0037231-19.2294922
	c0.0073853-0.1347656,0.5306396-8.2526855-3.3616943-12.4174805c-0.3850708-0.4130859-0.8026123-0.7772827-1.2415771-1.0822754
	l-0.8919678-0.6188965l0.8875732-0.6248169c0.4537354-0.3197632,0.8727417-0.684021,1.2444458-1.0852051
	c3.9012451-4.1796265,3.3757935-12.1746826,3.369873-12.2546387l-0.0029297-19.3938599
	c0-4.2025757,1.1018677-7.3917236,3.2745361-9.4785767c2.9545288-2.8374634,6.9274292-2.6502075,6.9650879-2.645752
	c0.1426392,0.0037231,0.3303833-0.0584717,0.477417-0.1887817c0.1537476-0.1369019,0.2446289-0.3272095,0.2549438-0.5352173
	c0.0206909-0.4152832-0.3022461-0.7735596-0.7182617-0.7965088C20.2421265,0.0007324,20.2007446,0,20.1556396,0
	c-1.2577515,0-4.9395142,0.2546387-7.8652344,3.0418091c-2.5044556,2.3822021-3.7741089,5.949646-3.7741089,10.6037598
	l0.0029907,19.4309082c0.0036621,0.0236816,0.4699707,7.5019531-2.9604492,11.1796875
	c-1.2504272,1.3354492-2.8208008,1.9839478-4.802063,1.9839478C0.3392334,46.2401123,0,46.5806274,0,46.9981689
	s0.3392334,0.7580566,0.7567749,0.7580566c1.9797974,0,3.5479736,0.6469727,4.7938843,1.9765625
	c3.1873779,3.409729,3.0269775,10.0174561,2.9627075,11.3070068v19.312439c0,4.6549072,1.2695923,8.2214966,3.7733765,10.6022339
	C15.2560425,93.7808838,18.9858398,94,20.0581055,94l0.1958618-0.0044556
	c0.2305298-0.010376,0.4160156-0.0977173,0.5505371-0.2472534c0.1359863-0.151001,0.2054443-0.3464355,0.1943359-0.5507813
	c-0.0103149-0.2028198-0.1011963-0.3908691-0.2549438-0.5285645C20.5931396,92.5342407,20.4017334,92.4675903,20.2103271,92.4794312
	z"/>
</svg>
