<?xml version="1.0" encoding="utf-8"?>
<!-- Generator: Adobe Illustrator 22.1.0, SVG Export Plug-In . SVG Version: 6.00 Build 0)  -->
<svg fill="#0071e3" version="1.1" id="Layer_1" xmlns="http://www.w3.org/2000/svg" xmlns:xlink="http://www.w3.org/1999/xlink" x="0px" y="0px"
	 viewBox="0 0 91.0000153 110.0000229" style="enable-background:new 0 0 91.0000153 110.0000229;" xml:space="preserve">
<path class="st1" d="M46.3587914,43.255455c0.1364136-1.1046753,0.6187744-1.8515625,0.9227295-1.9710693
	c0.0263672-0.0087891,0.0615845-0.0241699,0.1210938,0.0045166c0.0264282,0.0133667,0.057312,0.0330811,0.0967407,0.0663452
	c0.2246094,0.1965942,0.2643433,0.380127,0.1431885,0.6584473C47.4599266,42.4336166,46.9753075,42.8844223,46.3587914,43.255455z
	 M52.5954247,43.149559c-0.0087891-0.0067749-0.0153198-0.0110474-0.0263672-0.0110474
	c-0.0661011-0.0287476-0.1806641-0.0796509-0.3987427,0.0993042c-0.3632202,0.2962036-0.7157593,1.0010376-0.9227295,1.8120117
	c0.9491577-0.6959839,1.4842529-1.4517822,1.4646606-1.7832642C52.7099876,43.2400742,52.7099876,43.2002792,52.5954247,43.149559z
	 M46.1472435,54.2356796l5.9989624-4.6956177c-0.2203369-0.0332642-0.4449463-0.0796509-0.671814-0.1525269
	c-0.0768433-0.0264893-0.15625-0.0529785-0.2288208-0.088501c-0.6256104-0.2938843-1.057251-0.9367676-1.2290039-1.8361816
	c-0.0264282-0.1414185-0.0483398-0.2828369-0.0593872-0.4308472c-1.3081665,0.4837646-2.4753418,0.4484863-3.3187866-0.1282959
	c-0.6497192-0.4418945-1.0966797-1.1401978-1.3059082-1.9799194c-0.65625,0.1900635-1.321228,0.2740479-1.9204712,0.2122803
	c-0.24646-0.0287476-0.4602661-0.09729-0.6738281-0.170166l0.2509766,7.784729
	c0.0045166,0.1767578-0.0328979,0.3579712-0.1054688,0.5127563l-3.7241211,7.9793701l2.9377441,1.3786621l3.7218018-7.9770508
	C45.8916893,54.4875107,46.0085106,54.3415756,46.1472435,54.2356796z M57.2289696,27.5863876
	c-7.5757446-3.5620117-16.6202393-0.2739868-20.1682129,7.3274536c-0.1055298,0.2299194-0.1738281,0.4683838-0.24646,0.704895
	l-0.6958618,2.0219727l-0.0485229,0.0198975c-0.5286255,1.9355469-1.4755249,7.0179443,0.2554932,14.7011108
	c0.4931641,2.3511963-0.1871948,4.949707-1.0946045,7.0334473l1.8872681,0.8861694l3.6072388-7.7295532l-0.2929077-9.0863647
	c-0.0196533-0.5809937,0.4140015-1.0604858,0.9800415-1.1401367c0.0133057-0.0045166,0.024353-0.0133667,0.0396729-0.0176392
	c0.0153809-0.0022583,0.0221558,0.0022583,0.0351563,0.0022583c0.0133057-0.0045166,0.0221558-0.0111084,0.0352173-0.0088501
	c0.0178223-0.0045166,0.0354004,0.0065918,0.0529785,0.0065918c0.0595703,0,0.114563,0.0087891,0.1696167,0.0286865
	c0.5175171,0.0905151,0.9248047,0.5125122,0.9423828,1.0585327l0.0090332,0.3115845
	c0.2223511,0.1611328,0.4909058,0.2694702,0.8366699,0.3025513c0.5220337,0.0554199,1.1033936-0.0353394,1.664856-0.2231445
	c0-0.2054443,0.0133057-0.413208,0.0374756-0.6254272c0.1343994-1.1931152,0.6936646-2.5652466,1.6385498-2.9299927
	c0.4713135-0.1812744,0.9556885-0.0905151,1.3654785,0.2717285c0.5944214,0.5172729,0.7529297,1.2332153,0.4358521,1.9622803
	c-0.3433838,0.7955933-1.2332764,1.5445557-2.2814331,2.0484619c0.1276245,0.6385498,0.4316406,1.1489868,0.8807983,1.4562988
	c0.6784058,0.4794922,1.755127,0.2495728,2.6934814-0.1681519c0.1430054-1.4053955,0.7155762-2.8150635,1.4951172-3.442749
	c0.4758301-0.3887329,1.0263062-0.4837646,1.541626-0.2649536c0.4888916,0.2185669,0.8061523,0.6098022,0.8348389,1.1091919
	c0.06604,1.1535645-1.3807983,2.5168457-2.7550659,3.2947998c-0.0087891,0.0065308-0.0175781,0.0131226-0.0263672,0.0153809
	c0.0020142,0.2563477,0.0218506,0.5059204,0.06604,0.7380981c0.0769043,0.4063721,0.262085,0.9213867,0.6868896,1.0582886
	c0.6409302,0.2034302,1.2817993,0.1923218,1.737793,0.1459351c0.4909668-0.3491211,1.1670532-0.258606,1.5393066,0.218811
	c0.3831787,0.4906006,0.2949829,1.2019653-0.1959229,1.5864258l-7.144165,5.5905762l-3.6072388,7.7297974l2.8231812,1.3280029
	c1.0239868-2.0351563,2.5877075-4.2295532,4.723938-5.3740234c6.9589844-3.5665894,10.2358398-7.5440063,11.376709-9.1924438
	l-0.0175781-0.0463867l1.1032066-1.8342285c0.1343994-0.2053833,0.2753296-0.413147,0.3811035-0.6407471
	C68.0793076,40.217308,64.8024521,31.1441269,57.2289696,27.5863876z M89.0293808,54.3725815
	c-6.7653198,22.9103394-19.7320557,25.1730957-15.5391846,48.876709
	c-8.2164307,4.3265991-17.4108849,6.7507324-27.1204185,6.7507324c-2.9884033,0-11.4055786-0.0287476-14.2814941-0.4729614
	c-0.5637207-8.2024536-5.6376953-18.1019897-12.3016968-18.711792c-3.7019653-0.340271-5.7347422-0.2962036-10.8129892-1.3700562
	c-5.0829468-1.0739136-6.6398926-5.897644-5.6376953-8.2024536c0.933594-2.1523438,2.4201663-4.1895142,2.2593997-6.5452271
	c-0.0352173-0.5457764,0.114502-2.5587158-0.3876953-2.8814087c-0.4976807-0.3181763-2.2902834-0.850769-2.9685671-1.9932861
	c-0.6803589-1.1378784,0.5109863-2.9498901,1.5460815-3.4028931c1.4400637-0.6340332,4.8448486-0.0484619,4.4395752-0.1434937
	c-1.1054072-0.258606-4.3956299-0.4973145-5.4020386-2.7976685c-1.1428833-2.6227417,0.7466431-2.8924561,1.556885-3.8471069
	c1.303894-1.5422974,0.4713135-2.9874878-0.4710696-4.1586914c-0.9471436-1.1689453-3.3783569-2.4395142-3.7703247-4.6757813
	c-0.5549316-3.1508789,0.3170776-2.0439453,7.1946411-6.6576538c6.8798823-4.616272,4.5167232-7.8820801,4.3890986-10.0321045
	C11.5962782,31.955101,15.3688612,14.158103,26.0760155,6.9940405c13.9315186-9.3182373,27.116333-8.74823,42.6442223-1.6948242
	C95.7946396,17.6029282,91.7730942,45.069725,89.0293808,54.3725815z M61.9504662,19.3486557
	c0.9800415,0.4595337,2.1450157,0.0375366,2.6030235-0.9458618l2.6759033-5.7319956
	c0.4558105-0.9811401,0.0351563-2.1500244-0.9448853-2.6118774c-0.9777832-0.4595337-2.1428223-0.0375366-2.6008263,0.9435425
	l-2.6756592,5.7343149C60.5498314,17.7201157,60.9706078,18.889061,61.9504662,19.3486557z M47.1867943,8.5630102
	l0.5394287,6.3065186c0.0618286,0.7270508,0.5110474,1.3237314,1.1210327,1.6108408
	c0.3039551,0.1436768,0.6428833,0.2122192,0.9976196,0.1790161c1.0768433-0.0927734,1.8762817-1.045167,1.7815552-2.1256723
	L51.089016,8.2272558c-0.0924683-1.0784302-1.041626-1.8806152-2.1184082-1.7878418
	C47.8915062,6.5301733,47.0941429,7.48458,47.1867943,8.5630102z M31.6850853,14.725852l3.6094971,5.1884775
	c0.2047729,0.2962036,0.4735718,0.5147705,0.7753296,0.656189c0.6123047,0.2896118,1.3564453,0.2498169,1.9511108-0.1679077
	c0.8875732-0.6185913,1.1034546-1.8450317,0.4846191-2.7376709l-3.6094971-5.1884775
	c-0.6188354-0.890625-1.8390503-1.1049194-2.7263794-0.4860229C31.2821312,12.6090307,31.0663109,13.8354712,31.6850853,14.725852z
	 M26.9679222,41.7242661c-0.0945435-1.0806885-1.0393677-1.8805542-2.1184692-1.7897949l-6.2851563,0.5411987
	c-1.0770264,0.0927734-1.8742065,1.0431519-1.7817383,2.1258545c0.0595093,0.7247925,0.5067139,1.3257446,1.1209717,1.6131592
	c0.2994995,0.1414185,0.6409302,0.2054443,0.9954224,0.1744385l6.2851563-0.5412598
	C26.2611351,43.757164,27.0605736,42.8047104,26.9679222,41.7242661z M27.0427513,30.5232162
	c0.9801025,0.4595947,2.1450806,0.0352783,2.6030884-0.9458008c0.4602661-0.9811401,0.0374146-2.1523438-0.9424438-2.6096802
	l-5.7105713-2.6846924c-0.9820557-0.461853-2.1470337-0.0375977-2.6027832,0.9455566
	c-0.458252,0.9811401-0.0374756,2.1480713,0.9423828,2.6098633L27.0427513,30.5232162z M47.8561668,70.5191269
	l-17.4923096-8.2180786l-0.6585083,1.4076538l0.7466431,0.3513794l-0.5991821,1.2838745l-0.7441406-0.3513794l-0.6278076,1.3433838
	l0.7443848,0.3514404l-0.5966797,1.2793579l-0.7026978-0.331543c-0.6738281,1.7346191,0.2886353,3.8294678,2.2661743,4.9122314
	c-0.0241699,1.0275269,0.5418701,2.024231,1.5305176,2.4883423l5.5145874,2.5897217
	c0.9865723,0.461792,2.1141357,0.2629395,2.8849487-0.413208c2.0897827,0.8308716,4.3139648,0.2296753,5.2081299-1.3988037
	l-0.6143188-0.2871704l0.5966797-1.2817993l0.6585083,0.3095093l0.6275635-1.3413696l-0.6584473-0.3115845l0.5969238-1.2816162
	l0.6605225,0.3093262L47.8561668,70.5191269z M66.4872055,50.6867905c0.2994995-0.5036621,0.6494751-0.97229,0.9049683-1.5223389
	c4.2921143-9.1969604,0.3414307-20.1394043-8.824337-24.4483643c-9.1678467-4.3066406-20.0732422-0.3448486-24.3653564,8.8543701
	c-0.2578125,0.5478516-0.3922119,1.118042-0.5881348,1.6703491c-0.2268677,0.0930176-2.862854,6.755249-0.3809204,17.770752
	c0.6914063,3.296814-2.3520508,7.8399658-2.3696289,7.8311157c2.5698853,1.2088013,5.1422729,2.4175415,7.7166748,3.6260986
	c0.7861328,0.3690186,1.5679932,0.7358398,2.3518677,1.1048584c2.5744019,1.2088013,5.1445313,2.4175415,7.7166748,3.6262817
	c-0.0153198-0.0090332,1.5129395-5.2613525,4.4772949-6.843689C63.1573753,57.2166367,66.5621567,50.9209824,66.4872055,50.6867905z
	 M70.1075668,66.6122665l-3.6115112-5.1905518c-0.6188354-0.8928833-1.8410645-1.109436-2.7264366-0.4862671
	c-0.8875732,0.6209106-1.1033936,1.8450928-0.4866333,2.7333984l3.6115074,5.1928101
	c0.2047729,0.291687,0.4713135,0.5150146,0.7730713,0.6541748c0.6122437,0.2893677,1.3566284,0.2498169,1.9533691-0.1656494
	C70.5085678,68.7247543,70.7243271,67.5028915,70.1075668,66.6122665z M71.8672104,28.4084702
	c0.6123047,0.2873535,1.3587036,0.2453003,1.9533691-0.170166l5.1708984-3.6238403
	c0.885376-0.6210938,1.1032104-1.8452148,0.484375-2.7356567c-0.6210327-0.8860474-1.8410034-1.1026001-2.7263794-0.4862061
	l-5.1729736,3.6240234c-0.8853149,0.6231079-1.1033936,1.84729-0.4823608,2.7356567
	C71.2968979,28.0482407,71.5654526,28.2670517,71.8672104,28.4084702z M80.460289,53.4998398l-5.7146606-2.6847534
	c-0.9778442-0.4597778-2.1450806-0.0375366-2.6030884,0.9456177c-0.458252,0.9833984-0.0354004,2.1523438,0.9424438,2.6118774
	l5.7148438,2.6827393c0.9800415,0.461792,2.1450195,0.0375366,2.6030884-0.9436035
	C81.863121,55.1283798,81.4380112,53.9594345,80.460289,53.4998398z M85.012352,38.7367783
	c-0.0969849-1.0784302-1.041626-1.8828125-2.1186523-1.7877808l-6.2851563,0.5414429
	c-1.0790405,0.0905151-1.878479,1.0429077-1.7860107,2.1235962c0.0617676,0.7268066,0.5109863,1.3280029,1.12323,1.6151733
	c0.3017578,0.1391602,0.6408691,0.2077026,0.9954224,0.1769409l6.2851563-0.5437622
	C84.3031235,40.7696152,85.1048203,39.8194809,85.012352,38.7367783z"/>
</svg>
