<?xml version="1.0" encoding="utf-8"?>
<!-- Generator: Adobe Illustrator 22.1.0, SVG Export Plug-In . SVG Version: 6.00 Build 0)  -->
<svg fill="#0071e3" version="1.1" id="Layer_1" xmlns="http://www.w3.org/2000/svg" xmlns:xlink="http://www.w3.org/1999/xlink" x="0px" y="0px"
	 viewBox="0 0 102 97" style="enable-background:new 0 0 102 97;" xml:space="preserve">
<style type="text/css">
	.st0{fill-rule:evenodd;clip-rule:evenodd;}
	.st1{fill:#231F20;}
</style>
<path d="M66.2546387,59.6693115c-1.1442261-5.2207031-6.4586754-22.6026611-27.1168175-29.3865967l9.0934448-2.8693237
	c1.6279297-0.5150757,2.5236206-2.2221069,1.9991455-3.8165283c-0.5265503-1.5926514-2.2755737-2.4630127-3.9014893-1.9537354
	l-19.1723652,6.0505371c-0.9985962,0.3158569-1.7649536,1.1011963-2.0394897,2.0899658
	c-0.2761841,0.9885864-0.0200195,2.0465088,0.6759033,2.8121948l13.9980488,15.3654175
	c0.6112061,0.6708984,1.4604492,1.0144653,2.3137817,1.0144653c0.7341309,0,1.4685059-0.2526245,2.0615234-0.7677612
	c1.2749634-1.1150513,1.3880005-3.03125,0.2501831-4.2805176l-7.1613159-7.8616943
	c16.3920288,5.4523926,21.3341064,18.4924927,22.6704712,23.6627808c-4.9490967,1.3937378-8.5857544,5.854126-8.5857544,11.138855
	c0,3.0963135,1.232605,6.0091553,3.4716187,8.2017822c2.241272,2.1903687,5.218811,3.3961792,8.3859253,3.3961792
	c6.536068,0,11.8535728-5.2020264,11.855648-11.5979614c0.0018921-3.0964966-1.232605-6.0093384-3.4718018-8.1999512
	C70.0828857,61.2003174,68.2498779,60.1871338,66.2546387,59.6693115z M63.1974525,76.402832
	c-1.5129395,0-2.9331055-0.5761108-4.0023193-1.6221313c-1.0692139-1.0459595-1.6581421-2.4353027-1.6581421-3.9133301
	c0-3.0530396,2.541687-5.5356445,5.6604614-5.5356445c1.5129356,0,2.9331017,0.5762939,4.0023155,1.6221313
	c1.0691528,1.0459595,1.65625,2.4353027,1.65625,3.9135132C68.8539429,73.9202271,66.3162231,76.402832,63.1974525,76.402832z
	 M40.6519203,64.9526978l6.8994751,6.5875854l-4.3290405,4.3377686l-6.8989868-6.5870972l-6.7299213,6.7449341l-4.434021-4.2351074
	l6.729126-6.7441406l-6.8984985-6.5866699l4.3291016-4.3377075l6.8979511,6.5861206l6.7348022-6.7498169l4.434021,4.2350464
	L40.6519203,64.9526978z M83.7011719,42.5736694l-4.3291016,4.3377075l-6.8989868-6.5870972l-6.7298584,6.7449341
	l-4.4340172-4.2350464l6.7291222-6.7441406l-6.8984947-6.5866699l4.3290367-4.3377075l6.8980103,6.5861206l6.7348022-6.7498169
	l4.434021,4.2350464l-6.7340698,6.7490845L83.7011719,42.5736694z M52.4231606,0
	c-14.6656494,0-27.845583,6.2792969-36.9295044,16.2163696c-1.1617432-0.3656006-2.3847046-0.5628052-3.6402588-0.5628052
	c-6.5358281,0-11.8533936,5.2020264-11.8533936,11.5961304c-0.0020752,3.0983276,1.2305298,6.0111694,3.4695435,8.2017822
	c0.3131714,0.3065796,0.6439207,0.5888672,0.9844358,0.8562622C3.4133937,40.2050781,2.8463161,44.2871094,2.8463161,48.5
	c0,26.7424927,22.2406006,48.5,49.5768433,48.5S102,75.2424927,102,48.5S79.7593994,0,52.4231606,0z M11.8533964,21.7160645
	c1.5131226,0,2.9333496,0.576355,4.0023193,1.6221313c1.0671377,1.0439453,1.6542349,2.4353027,1.6542349,3.9153442
	c0,1.4782715-0.5870972,2.8675537-1.6542349,3.9115601c-2.1381836,2.0917358-5.8661499,2.0917358-8.0025024,0
	c-1.0692139-1.0460205-1.6561279-2.4353027-1.6561279-3.9154053C6.1970849,24.1986694,8.7348051,21.7160645,11.8533964,21.7160645z
	 M52.4231606,88.916626c-22.7811909,0-41.3140259-18.1303101-41.3140259-40.416626
	c0-3.3378296,0.4336548-6.5736084,1.2258911-9.6732788c2.9855957-0.116394,5.777648-1.2948608,7.9022207-3.3734131
	c2.2392578-2.1904297,3.4718628-5.1032104,3.4697876-8.1997681c0.0014648-2.1467285-0.602356-4.197937-1.7105713-5.9880371
	C29.5515156,13.18573,40.3740883,8.083313,52.4231606,8.083313c22.7811852,0,41.3140221,18.1303101,41.3140221,40.416687
	C93.7371826,70.7863159,75.2043457,88.916626,52.4231606,88.916626z"/>
</svg>
