<?xml version="1.0" encoding="utf-8"?>
<!-- Generator: Adobe Illustrator 22.1.0, SVG Export Plug-In . SVG Version: 6.00 Build 0)  -->
<svg fill="#0071e3" version="1.1" id="Layer_1" xmlns="http://www.w3.org/2000/svg" xmlns:xlink="http://www.w3.org/1999/xlink" x="0px" y="0px"
	 viewBox="0 0 127 102" style="enable-background:new 0 0 127 102;" xml:space="preserve">
<style type="text/css">
	.st0{fill-rule:evenodd;clip-rule:evenodd;}
	.st1{fill:#231F20;}
</style>
<path d="M53.1426392,23.7286987c0-7.0751343,4.5664673-12.8039551,10.2028809-12.8039551
	c5.6315918,0,10.1911621,5.7288208,10.1911621,12.8039551c0,7.0657959-4.5595703,12.809082-10.1911621,12.809082
	C57.7091064,36.5377808,53.1426392,30.7944946,53.1426392,23.7286987z M77.9020386,39.8920898
	c-0.1121826-0.0189819-4.3370972-0.5710449-5.9942627-0.694519l-0.0328369,0.1473999l4.3675537,3.7540894l-5.2220459,2.65979
	l2.4155273,4.2157593l-6.6519165,14.9215088l-1.0697021-21.0737305l0.961792-0.8422241l-1.2731934-4.1633911h-4.1266479
	l-1.2592773,4.1633911l0.947937,0.8422241l-1.0697021,21.0783691l-6.6567993-14.9261475l2.4249268-4.2157593l-5.2172241-2.65979
	l4.3629761-3.758728l-0.0376587-0.1427612c-1.6571655,0.1283569-4.6366577,0.4804077-5.5731201,0.713562
	c-0.0256348,0-0.0537109-0.019043-0.0889282-0.019043c-3.246521,0.4996948-5.7766113,2.3552856-6.0551758,5.723999
	l-0.9551392,12.2570801c4.9974365,4.0062256,11.097168,6.6516724,17.7822266,7.3320923
	c1.1375732,0.1142578,2.2937622,0.1809692,3.4593506,0.1809692c1.1704102,0,2.3197021-0.0667114,3.4596558-0.1809692
	c6.8255005-0.6899414,13.046936-3.4210815,18.0980835-7.5701294l-0.934082-12.019043
	C83.678894,42.2522583,81.9069214,40.5869141,77.9020386,39.8920898z M99.6951294,40.2918701
	c-0.4217529,4.7593384-1.736084,9.2581177-3.7696533,13.328186l6.9538574,4.0818481
	c3.0921631-3.1404419,7.9841309-3.9397583,11.944458-1.6129761c4.7213135,2.769165,6.3456421,8.9214478,3.6187744,13.7269897
	c-2.7245483,4.8009644-8.7868042,6.4521484-13.5127563,3.6732178c-3.9066162-2.293396-5.6855469-6.9086914-4.6296997-11.1624756
	l-7.0723877-4.151123c-2.6160889,3.7741089-5.9050293,7.0310669-9.6942749,9.5848999l4.1129761,7.2418213
	c4.2249146-1.1513062,8.8498535,0.6470337,11.1367188,4.6725464c2.7268677,4.8009644,1.1049194,10.953186-3.6185303,13.7272949
	c-4.7210693,2.7738037-10.7833862,1.1228027-13.5103149-3.6829834c-2.2542114-3.9729004-1.5214844-8.8737183,1.4815063-12.0236816
	l-4.161438-7.3209839c-4.0001221,1.9209595-8.3979492,3.1167603-13.0307007,3.4311523v8.4385986
	c4.2249756,1.1513672,7.3449097,5.0579834,7.3449097,9.706665C73.2885742,97.4938354,68.8577881,102,63.4039917,102
	s-9.8917847-4.5061646-9.8894043-10.0540161c0.0024414-4.586792,3.0476074-8.460022,7.1953735-9.6588745v-8.5083008
	c-4.6271973-0.3589478-9.0174561-1.5914917-13.0019531-3.5525513L43.583252,77.486145
	c3.0943604,3.1401978,3.8762207,8.1124268,1.5893555,12.1379395c-2.7247314,4.8009033-8.7822876,6.4519043-13.5081177,3.6827393
	c-4.7210693-2.7740479-6.3432617-8.9309692-3.616394-13.7367554c2.2587891-3.9729004,6.802063-5.7810059,10.982605-4.7056885
	l4.144043-7.2940063c-3.7642212-2.5892334-7.022522-5.8797607-9.6043091-9.6799316l-7.008606,4.1173706
	c1.1351318,4.2871094-0.6365967,8.9927979-4.5947266,11.3149414c-4.7235107,2.7738037-10.7810059,1.1228638-13.5079346-3.6781006
	C5.7322998,64.84375,7.3566284,58.6868286,12.0801392,55.9127808c3.911377-2.293396,8.7352295-1.5465088,11.829834,1.5036011
	l7.003479-4.1107788c-1.9931641-4.0858154-3.2591553-8.5969238-3.6370239-13.361145h-7.8418579
	c-1.1260376,4.2918091-4.973938,7.4656372-9.545166,7.4656372C4.4356079,47.4100952,0,42.9039307,0,37.3609009
	c0-5.5432129,4.4356079-10.0491333,9.8894043-10.0491333c4.5172729,0,8.328064,3.0973511,9.5053711,7.3131104h7.831665
	C28.4126587,15.3311768,44.2241211,0,63.4998779,0c19.3909302,0,35.2836914,15.5164795,36.2976685,34.975647l7.7609253-0.0033569
	c1.1351318-4.2871704,4.9784546-7.4607544,9.552124-7.4656372c5.451416,0.0048828,9.8870239,4.5059204,9.8894043,10.0491333
	c0,5.5432739-4.4379883,10.0587158-9.8963623,10.0540771c-4.5127563-0.0048828-8.3234863-3.0975952-9.5008545-7.3179932H99.6951294z
	 M112.4549561,37.5557861c0,2.6123657,2.090332,4.7296143,4.6556396,4.7296143c2.567749,0,4.6532593-2.1221313,4.6532593-4.7296143
	c0-2.6073608-2.0878906-4.7294922-4.6577759-4.7246094C114.5452881,32.8311768,112.4528809,34.9437866,112.4549561,37.5557861z
	 M14.5426025,37.3609009c0-2.607605-2.0878906-4.7297363-4.6531982-4.7297363c-2.5678101,0-4.6557007,2.1221313-4.6557007,4.7297363
	c0,2.6120605,2.0878906,4.7296143,4.6557007,4.7296143C12.4547119,42.0905151,14.5426025,39.9729614,14.5426025,37.3609009z
	 M21.0543823,62.2553101c-1.2827759-2.2600708-4.1384277-3.0357056-6.3574219-1.7318726
	c-2.2259521,1.3035889-2.9891357,4.2060547-1.7062988,6.4614258c1.2849731,2.2600098,4.133606,3.0357056,6.3595581,1.7272339
	C21.5692139,67.413147,22.3369141,64.5153198,21.0543823,62.2553101z M38.9345703,80.5026245
	c-2.2211304-1.3035889-5.0722046-0.5233154-6.3547363,1.7321167c-1.2852173,2.2600098-0.5195923,5.1578369,1.7039185,6.4614258
	c2.2211304,1.3084106,5.0722046,0.5281372,6.3571777-1.7367554C41.9213257,84.7088623,41.1605225,81.8064575,38.9345703,80.5026245z
	 M86.1903076,87.0641479c1.2852173,2.2600098,4.1384277,3.0357056,6.3598022,1.7318726
	c2.2236328-1.3084717,2.984314-4.201416,1.6969604-6.4614258c-1.2803955-2.2600098-4.1290283-3.0405273-6.3549805-1.7367554
	C85.6707153,81.906311,84.9077759,84.8041382,86.1903076,87.0641479z M107.5537109,68.8882446
	c2.2237549,1.3035889,5.074585,0.5232544,6.3573608-1.7367554c1.2825317-2.2553711,0.5172119-5.1531982-1.7087402-6.4567871
	c-2.2189941-1.303833-5.0722046-0.53302-6.3573608,1.7318726C104.562439,64.6819458,105.3301392,67.5795288,107.5537109,68.8882446z
	 M63.4016113,87.2164307c-2.567749,0-4.6532593,2.12677-4.6532593,4.734436c0,2.6120605,2.090271,4.7295532,4.6556396,4.7295532
	c2.567749,0,4.6508179-2.1221313,4.6486816-4.734436C68.0526733,89.3432007,65.9717407,87.2210693,63.4016113,87.2164307z
	 M95.0570068,36.9516602c0-17.6906128-14.1564941-32.0793457-31.5571289-32.0793457
	c-17.402771,0-31.5592651,14.3887329-31.5592651,32.0793457c0,17.685791,14.1564941,32.0744629,31.5592651,32.0744629
	C80.9005127,69.026123,95.0570068,54.6374512,95.0570068,36.9516602z"/>
</svg>
