<?xml version="1.0" encoding="utf-8"?>
<!-- Generator: Adobe Illustrator 22.1.0, SVG Export Plug-In . SVG Version: 6.00 Build 0)  -->
<svg fill="#0071e3" version="1.1" id="Layer_1" xmlns="http://www.w3.org/2000/svg" xmlns:xlink="http://www.w3.org/1999/xlink" x="0px" y="0px"
	 viewBox="0 0 124.9999847 102.0000153" style="enable-background:new 0 0 124.9999847 102.0000153;" xml:space="preserve">
<style type="text/css">
	.st0{fill-rule:evenodd;clip-rule:evenodd;}
	.st1{fill:#231F20;}
</style>
<path d="M32.0987892,55.9019356c0-0.8112793,0.6503906-1.4668579,1.4525757-1.4668579h1.692688
	c0.8021851,0,1.4526367,0.6555786,1.4526367,1.4668579v1.788269H56.207737c6.2268677,0,11.2877769-5.112793,11.2877769-11.3983154
	v-6.8739624c-1.3128662-1.9493408-3.5272789-3.2330933-6.0357018-3.2330933H51.4262428v-1.2244263
	c0-5.5902729-4.5013428-10.1391621-10.0348511-10.1391621H27.4015236c-5.5287476,0-10.0311279,4.5488892-10.0311279,10.1391621
	v1.2244263h-3.3376474c-1.2479248,4.8407593-1.3005981,9.9464722-0.0978394,14.9454956
	c0.5571289,2.3153687,1.3816528,4.5043945,2.4005747,6.5598755h15.7633057V55.9019356z M22.8404884,34.9604073
	c0-2.5428467,2.0478516-4.6058979,4.5610352-4.6058979h13.9898682c2.515625,0,4.56604,2.0630512,4.56604,4.6058979v1.2244263
	H22.8404884V34.9604073z M68.759491,52.9953804v7.8463135c-4.0906982,6.2186852-10.3837242,10.9826622-18.1148643,12.879879
	c-2.3712158,0.5812988-4.7976074,0.8781738-7.2116699,0.8781738c-10.3029785,0-19.5599976-5.2044678-25.0802002-13.426693
	h13.7460327v1.7885132c0,0.8087158,0.6503906,1.4667931,1.4525757,1.4667931h1.692688
	c0.8021851,0,1.4526367-0.6580772,1.4526367-1.4667931v-1.7885132H56.207737
	C61.7831764,61.1730537,66.584259,57.8115425,68.759491,52.9953804z M120.6716003,84.378006L95.3305359,67.7799835
	c-2.2315063-1.444519-4.8060913-1.7636719-7.2019043-1.1798096c-0.81073,0.2003174-1.5946045,0.4997559-2.3345947,0.9004517
	l-4.166687-2.7285156c4.9505615-9.2263145,6.7192383-20.2439537,4.0736694-31.2240562
	C80.0621033,10.0241871,56.5115089-4.4587841,33.2207375,1.2403737C9.9322844,6.9593067-4.4150662,30.7207813,1.2276337,54.2395821
	c5.6584473,23.5289268,29.2017822,38.0166588,52.5036011,32.3101768
	c9.2130737-2.2609253,17.0124474-7.3886719,22.7446251-14.1934814l4.3455811,2.8496094
	c-0.2009277,3.3417358,1.1954956,6.7133789,4.18396,8.6525879l25.3338623,16.5977173
	c2.2731323,1.5015869,4.9603882,1.8701172,7.402771,1.269043c2.2806396-0.5565186,4.3503418-1.9640503,5.7271729-4.1062012
	C126.3205261,93.1936798,125.0761414,87.2447662,120.6716003,84.378006z M51.8302956,78.6441193
	c-19.0249634,4.6700439-38.15625-7.1264648-42.7702026-26.3167076C4.4400973,33.1374702,16.0991554,13.7939625,35.1130714,9.1460133
	c19.0101929-4.6725464,38.1588097,7.1239624,42.7885704,26.3141499
	C82.5018005,54.6501656,70.8171692,73.9837189,51.8302956,78.6441193z"/>
</svg>
