<?xml version="1.0" encoding="utf-8"?>
<!-- Generator: Adobe Illustrator 22.1.0, SVG Export Plug-In . SVG Version: 6.00 Build 0)  -->
<svg fill="#0071e3" version="1.1" id="Layer_1" xmlns="http://www.w3.org/2000/svg" xmlns:xlink="http://www.w3.org/1999/xlink" x="0px" y="0px"
	 viewBox="0 0 122 92" style="enable-background:new 0 0 122 92;" xml:space="preserve">
<style type="text/css">
	.st0{fill-rule:evenodd;clip-rule:evenodd;}
	.st1{fill:#231F20;}
</style>
<path d="M122,84.4717407v1.8831787C122,89.4719238,119.5178223,92,116.4525757,92H5.5426025C2.4796753,92,0,89.4719238,0,86.3549194
	v-1.8831787c0-0.2174683,0.0371094-0.4196167,0.0595093-0.6269531H42.237915
	c0.0866699,0.8746948,0.791748,1.5697021,1.6752319,1.5697021h34.1712036c0.8859863,0,1.5859985-0.6950073,1.6729126-1.5697021
	h42.1807251C121.9628906,84.052124,122,84.2542725,122,84.4717407z M62.8889771,21.3991699l6.1566772-6.2719727H56.8982544
	c-0.0124512,0.0732422-0.0124512,0.1464844-0.0246582,0.2200317l5.940918,6.0519409H62.8889771z M12.1100464,81.0184937h97.7774048
	c1.4121704,0,2.5614624-1.1679688,2.5614624-2.6088257v-60.673645c0-1.4434204-1.149292-2.6088257-2.5614624-2.6088257H92.2658081
	l-3.973877,6.2719727h17.78302v53.208313H15.9202271v-53.208313h9.3238525
	c-1.1564331-1.93396-1.9161377-4.0599976-2.2684326-6.2719727H12.1100464c-1.4172363,0-2.5615234,1.1654053-2.5615234,2.6088257
	v60.673645C9.5485229,79.8505249,10.6928101,81.0184937,12.1100464,81.0184937z M44.4121094,23.7854004l10.2685547,10.4557495
	L32.7562256,56.5654907c-1.7598267,1.7949829-1.7598267,4.7045898,0,6.4995117l0.3995972,0.4043579
	c1.7598267,1.7973022,4.6192017,1.7973022,6.3790283,0l21.9193726-22.3243408l9.357666,9.5227661
	c-1.7374878,4.4467773-0.8415527,9.7073975,2.6880493,13.3045654c2.7749634,2.8288574,6.5651245,3.9841309,10.1813965,3.491272
	l-6.5254517-6.6434326l1.8119507-6.8862915l6.7587891-1.845459l7.6051636,7.7457275
	c1.744873-4.4516602,0.8563232-9.7276001-2.6832275-13.3273315c-3.5344238-3.5948486-8.6970825-4.5073242-13.0631714-2.7402954
	L66.8379517,32.8204956l13.4505005-13.6941528l3.7230225-0.5205688l6.5526733-10.3444214l-3.6015015-3.6680908
	l-10.1542358,6.6763306l-0.5136719,3.7944336L62.8516235,28.760437L51.1881714,16.8791504
	c1.7374878-4.4441528,0.8415527-9.7050171-2.6855469-13.2996216C46.3259277,1.3598022,43.5209961,0.1767578,40.6692505,0
	l5.0980225,5.1922607l-2.2064209,8.385376l-8.2357178,2.2471924L28.333252,8.6985474
	c-1.2659912,4.2267456-0.2582397,9.0071411,3.0205078,12.3441772
	C34.8808594,24.6398926,40.0485229,25.5523682,44.4121094,23.7854004z"/>
</svg>
