<?xml version="1.0" encoding="utf-8"?>
<!-- Generator: Adobe Illustrator 22.1.0, SVG Export Plug-In . SVG Version: 6.00 Build 0)  -->
<svg fill="#0071e3" version="1.1" id="Layer_1" xmlns="http://www.w3.org/2000/svg" xmlns:xlink="http://www.w3.org/1999/xlink" x="0px" y="0px"
	 viewBox="0 0 298 408" style="enable-background:new 0 0 298 408;" xml:space="preserve">
<style type="text/css">
	.st0{fill-rule:evenodd;clip-rule:evenodd;}
	.st1{fill:#231F20;}
</style>
<path d="M106.731842,392.3627319c1.7029419,6.7183838-2.3648682,13.5473633-9.0831299,15.2492065
	C96.6131897,407.8739624,95.5758362,408,94.5539246,408c-5.6083374,0-10.7180176-3.7853394-12.1588745-9.4710693
	L0.3876612,74.9962158C-1.3152196,68.276001,2.7506983,61.4487953,9.4726219,59.745182
	c6.7191772-1.7000122,13.5480347,2.364563,15.250061,9.082943L106.731842,392.3627319z M289.3997498,167.6538086
	c-75.1621704-5.4436646-124.5158081,69.3970947-199.675293,63.9534302
	c-5.9329834-0.7316284-11.3763428-3.7290649-13.5389404-11.6433716
	c-13.4755287-49.3126221-26.7406654-98.6851196-40.1091957-148.0276489
	c-1.4481201-5.3411865,2.3639526-8.4292564,8.295166-7.6984863C119.5327454,69.6813354,168.884613-5.159359,244.0449524,0.283329
	c9.5482788,0.572998,12.0881348,6.3022461,13.5371704,11.6434326
	c13.3676147,49.3434448,26.7451782,98.6832886,40.1100464,148.0267334
	C299.1402893,165.2955933,295.3300476,168.3827515,289.3997498,167.6538086z M194.1607971,28.1615028
	c3.6860352,13.6126709,7.378418,27.2262573,11.0643921,40.8398399c14.7866821-5.5406456,28.7409668-8.7302818,44.5514526-9.2507286
	c-3.6869507-13.6135864-7.3793335-27.2262573-11.0662231-40.8398438
	C222.8999329,19.4303017,208.9457092,22.6226845,194.1607971,28.1615028z M130.6198425,161.3597412
	c-4.1911011-15.4677124-8.3812866-30.9372559-12.5733032-46.4049683
	c15.0777588-6.7383423,29.3013916-14.8094482,43.5458374-23.1417236
	c-3.6878662-13.6135864-7.380249-27.2271729-11.0671387-40.8398399
	c-14.2435303,8.3331299-28.4662476,16.4015465-43.5449219,23.1408043
	c3.6869507,13.6135864,7.3756714,27.2271729,11.0662231,40.8407593
	c-15.4250488,6.0964355-30.171875,9.6976929-46.7911377,10.1791382
	c4.1911011,15.4677124,8.3794556,30.9381104,12.5750732,46.4049683
	C100.448822,171.0565186,115.1938171,167.4552002,130.6198425,161.3597412z M185.0858459,179.8357544
	c-3.7422485-13.8139648-7.4854126-27.6270142-11.2285156-41.440979
	c-14.1420288,8.274231-28.2640381,16.2746582-43.2375488,22.9631348
	c3.7431641,13.8139648,7.4854126,27.6279297,11.2294312,41.4400635
	C156.8218079,196.1094971,170.9456482,188.1109009,185.0858459,179.8357544z M217.7993469,115.406311
	c-4.1901855-15.4677124-8.3812866-30.9363403-12.5741577-46.4040527
	c-15.1575928,6.5388794-29.3911133,14.494873-43.6328735,22.80896c4.1901855,15.4686279,8.3822021,30.9372559,12.5705566,46.4058838
	C188.4064636,129.9020386,202.6445618,121.9469604,217.7993469,115.406311z M273.5802307,147.5956421
	c-3.7440796-13.8121338-7.4871826-27.6251831-11.2312622-41.4391479
	c-15.7070313,0.5122681-29.5896606,3.6638184-44.2893066,9.1445923
	c3.7440186,13.8139648,7.4862671,27.6279297,11.2303467,41.4400635
	C243.9878235,151.2594604,257.8722839,148.1088257,273.5802307,147.5956421z"/>
</svg>
