<?xml version="1.0" encoding="utf-8"?>
<!-- Generator: Adobe Illustrator 22.1.0, SVG Export Plug-In . SVG Version: 6.00 Build 0)  -->
<svg fill="#0071e3" version="1.1" id="Layer_1" xmlns="http://www.w3.org/2000/svg" xmlns:xlink="http://www.w3.org/1999/xlink" x="0px" y="0px"
	 viewBox="0 0 37 19" style="enable-background:new 0 0 37 19;" xml:space="preserve">
<style type="text/css">
	.st0{fill-rule:evenodd;clip-rule:evenodd;}
	.st1{fill:#231F20;}
</style>
<path d="M4.2671509,9.4302368c0,1.2271118-0.9552612,2.2218628-2.133606,2.2218628S0,10.6573486,0,9.4302368
	S0.9552002,7.208313,2.1335449,7.208313S4.2671509,8.203125,4.2671509,9.4302368z M8.6801147,7.208313
	c-1.1783447,0-2.133606,0.994812-2.133606,2.2219238s0.9552612,2.2218628,2.133606,2.2218628s2.133606-0.994751,2.133606-2.2218628
	S9.8584595,7.208313,8.6801147,7.208313z M15.2266846,7.208313c-1.1783447,0-2.133606,0.994812-2.133606,2.2219238
	s0.9552612,2.2218628,2.133606,2.2218628s2.133606-0.994751,2.133606-2.2218628S16.4050293,7.208313,15.2266846,7.208313z
	 M21.7732544,7.208313c-1.1783447,0-2.133606,0.994812-2.133606,2.2219238s0.9552612,2.2218628,2.133606,2.2218628
	s2.133606-0.994751,2.133606-2.2218628S22.9515991,7.208313,21.7732544,7.208313z M28.3198242,7.208313
	c-1.1783447,0-2.133606,0.994812-2.133606,2.2219238s0.9552612,2.2218628,2.133606,2.2218628s2.133606-0.994751,2.133606-2.2218628
	S29.4981689,7.208313,28.3198242,7.208313z M28.3198242,0c-1.1783447,0-2.133606,0.994812-2.133606,2.2219238
	s0.9552612,2.2218628,2.133606,2.2218628s2.133606-0.994751,2.133606-2.2218628S29.4981689,0,28.3198242,0z M28.3198242,14.5562744
	c-1.1783447,0-2.133606,0.994751-2.133606,2.2218628S27.1414795,19,28.3198242,19s2.133606-0.994751,2.133606-2.2218628
	S29.4981689,14.5562744,28.3198242,14.5562744z M34.866394,7.208313c-1.1783447,0-2.133606,0.994812-2.133606,2.2219238
	s0.9552612,2.2218628,2.133606,2.2218628S37,10.6573486,37,9.4302368S36.0447388,7.208313,34.866394,7.208313z"/>
</svg>
