<?xml version="1.0" encoding="utf-8"?>
<!-- Generator: Adobe Illustrator 22.1.0, SVG Export Plug-In . SVG Version: 6.00 Build 0)  -->
<svg fill="#ffffff" version="1.1" id="Layer_1" xmlns="http://www.w3.org/2000/svg" xmlns:xlink="http://www.w3.org/1999/xlink" x="0px" y="0px"
	 viewBox="0 0 20 20" style="enable-background:new 0 0 20 20;" xml:space="preserve">
<style type="text/css">
	.st0{fill-rule:evenodd;clip-rule:evenodd;}
	.st1{fill:#231F20;}
</style>
<path d="M13.75,0h-7.5C2.7987671,0,0,2.7987061,0,6.25v7.5C0,17.2012329,2.7987671,20,6.25,20h7.5
	c3.4512329,0,6.25-2.7987671,6.25-6.25v-7.5C20,2.7987061,17.2012329,0,13.75,0z M18.125,13.75
	c0,2.4124756-1.9625244,4.375-4.375,4.375h-7.5c-2.4124756,0-4.375-1.9625244-4.375-4.375v-7.5
	c0-2.4125366,1.9625244-4.375,4.375-4.375h7.5c2.4124756,0,4.375,1.9624634,4.375,4.375V13.75z M10,5c-2.7612305,0-5,2.2387085-5,5
	c0,2.7612305,2.2387695,5,5,5s5-2.2387695,5-5C15,7.2387085,12.7612305,5,10,5z M10,13.125
	c-1.7224731,0-3.125-1.4025269-3.125-3.125c0-1.7237549,1.4025269-3.125,3.125-3.125S13.125,8.2762451,13.125,10
	C13.125,11.7224731,11.7224731,13.125,10,13.125z M16.0412598,4.625c0,0.3679199-0.2982788,0.6662598-0.6662598,0.6662598
	S14.7087402,4.9929199,14.7087402,4.625c0-0.367981,0.2982788-0.6662598,0.6662598-0.6662598S16.0412598,4.257019,16.0412598,4.625z
	"/>
</svg>
