<?xml version="1.0" encoding="utf-8"?>
<!-- Generator: Adobe Illustrator 22.1.0, SVG Export Plug-In . SVG Version: 6.00 Build 0)  -->
<svg fill="#c9c9c9" version="1.1" id="Layer_1" xmlns="http://www.w3.org/2000/svg" xmlns:xlink="http://www.w3.org/1999/xlink" x="0px" y="0px"
	 viewBox="0 0 18 26" style="enable-background:new 0 0 18 26;" xml:space="preserve">
<style type="text/css">
	.st0{fill-rule:evenodd;clip-rule:evenodd;}
	.st1{fill:#231F20;}
</style>
<path d="M9.0004272,0C4.0375366,0,0,4.1029053,0,9.1460571c0,1.3782349,0.2908936,2.6976929,0.8579712,3.9075317
	c2.6936646,6.3129272,7.7640991,12.4876709,7.8151245,12.5493164L9.0008545,26l0.3272705-0.397522
	c0.0510864-0.0616455,5.1068115-6.2363892,7.7941895-12.5349731C17.7044678,11.8236084,18,10.5041504,18,9.1460571
	C18,4.1029053,13.9628906,0,9.0004272,0z M16.3426514,12.703125C14.0942993,17.9727173,10.1560059,23.1600342,9,24.6283569
	c-1.1589355-1.4676514-5.1085205-6.6573486-7.3627319-11.9393311c-0.5177002-1.1047974-0.7801514-2.296936-0.7801514-3.5429688
	c0-4.5598755,3.6528931-8.2697144,8.1433105-8.2697144c4.4899292,0,8.1424561,3.7098389,8.1424561,8.2697144
	C17.1428833,10.3721924,16.8758545,11.5643311,16.3426514,12.703125z M9,4.222229
	c-2.5994873,0-4.7142944,2.1621704-4.7142944,4.8198242c0,2.6578979,2.1148071,4.8200684,4.7142944,4.8200684
	c2.5994263,0,4.7142944-2.1621704,4.7142944-4.8200684C13.7142944,6.3843994,11.5994263,4.222229,9,4.222229z M9,12.9857788
	c-2.1269531,0-3.8571167-1.769165-3.8571167-3.9437256c0-2.1743164,1.7301636-3.9434814,3.8571167-3.9434814
	s3.8571167,1.769165,3.8571167,3.9434814C12.8571167,11.2166138,11.1269531,12.9857788,9,12.9857788z"/>
</svg>
