<?xml version="1.0" encoding="utf-8"?>
<!-- Generator: Adobe Illustrator 22.1.0, SVG Export Plug-In . SVG Version: 6.00 Build 0)  -->
<svg fill="#c9c9c9" version="1.1" id="Layer_1" xmlns="http://www.w3.org/2000/svg" xmlns:xlink="http://www.w3.org/1999/xlink" x="0px" y="0px"
	 viewBox="0 0 20 15" style="enable-background:new 0 0 20 15;" xml:space="preserve">
<style type="text/css">
	.st0{fill-rule:evenodd;clip-rule:evenodd;}
	.st1{fill:#231F20;}
</style>
<path d="M19.8869629,1.1611328c-0.0006714-0.0020142,0.0004272-0.0040894-0.0003052-0.0061035
	c-0.0007935-0.0021362-0.0024414-0.0037842-0.0032349-0.0059204c-0.0588989-0.161499-0.1404419-0.3092651-0.2389526-0.4442139
	c-0.0115356-0.0158081-0.0236816-0.0299072-0.0355835-0.0452881c-0.1984253-0.2541504-0.4592285-0.447876-0.7609863-0.5565796
	c-0.0274658-0.0100708-0.0544434-0.0184937-0.0824585-0.0269775C18.6172485,0.0314331,18.4638672,0,18.3021851,0H1.699646
	C1.5380249,0,1.3847046,0.0313721,1.2365112,0.0758667c-0.0283203,0.008606-0.055603,0.0171509-0.0834351,0.0272827
	C0.852356,0.2114868,0.5921631,0.4039917,0.3939209,0.6566162C0.3805542,0.6735229,0.3671875,0.6893311,0.3544312,0.7068481
	C0.2572632,0.840271,0.1765137,0.9857788,0.1179199,1.1448975c-0.0012207,0.003418-0.0037231,0.0058594-0.0049438,0.0092163
	C0.1118774,1.1572266,0.1134644,1.1604614,0.1124268,1.1635742C0.0430298,1.3581543,0,1.5663452,0,1.7860718v11.4268188
	c0,0.2198486,0.0430298,0.4279785,0.1123657,0.6226807c0.0011597,0.0033569-0.0006104,0.006958,0.0006104,0.0103149
	c0.0013428,0.0036621,0.0040894,0.0064087,0.0054321,0.0100708c0.0584106,0.1582642,0.1387939,0.3031616,0.2353516,0.4359741
	c0.0133667,0.0183105,0.0274048,0.0348511,0.0413208,0.0526123c0.197998,0.2519531,0.4575806,0.4439697,0.7575684,0.552124
	c0.0280762,0.0101929,0.055542,0.0187988,0.0841064,0.0275269C1.3848877,14.9686279,1.538147,15,1.699646,15h16.6025391
	c0.1615601,0,0.3148193-0.0314941,0.4629517-0.0760498c0.0281982-0.008606,0.0553589-0.0170898,0.0830688-0.0271606
	c0.3011475-0.1085815,0.5614624-0.3018188,0.7596436-0.555481c0.0125122-0.0159302,0.0251465-0.0308228,0.0371704-0.0473022
	c0.0980225-0.1345215,0.1791382-0.2816162,0.2379761-0.4423218c0.0008545-0.0024414,0.0027466-0.0042725,0.0036621-0.0067749
	c0.0007935-0.0021973-0.0004272-0.0046387,0.0003662-0.006897C19.9568481,13.6427002,20,13.4336548,20,13.2128906V1.7860718
	C20,1.5654297,19.9567871,1.3563232,19.8869629,1.1611328z M1.131897,1.2230225
	C1.1965942,1.151123,1.2748413,1.0952759,1.3588867,1.0515747c0.0098877-0.005127,0.0170898-0.0146484,0.0272827-0.0193481
	c0.09729-0.0452881,0.2036133-0.0706787,0.3134766-0.0706787h16.6025391c0.1096802,0,0.2159424,0.0253296,0.3131104,0.0709229
	c0.0064087,0.0029907,0.0109253,0.0090942,0.0172119,0.0122681c0.0884399,0.0444946,0.1696777,0.104126,0.2369995,0.1796265
	c0.0016479,0.00177,0.0022583,0.0043335,0.0039063,0.0061035l-8.8720703,8.3237915L1.12677,1.2310181
	C1.1288452,1.2286987,1.1298218,1.2253418,1.131897,1.2230225z M0.9140625,2.3196411l5.5231934,5.1799927l-5.5231934,5.1806641
	V2.3196411z M18.8691406,13.7758179c-0.0667725,0.0748901-0.1474609,0.1337891-0.2349243,0.1781006
	c-0.0070801,0.00354-0.0119629,0.0102539-0.019104,0.0136108c-0.0971069,0.0455322-0.2033081,0.0708008-0.3129272,0.0708008
	H1.699646c-0.1098022,0-0.2161255-0.0253296-0.3133545-0.0706787c-0.0109863-0.0050659-0.0186768-0.0151978-0.0293579-0.020813
	c-0.0830688-0.043457-0.1606445-0.0985107-0.2246704-0.1696777c-0.0021973-0.0024414-0.0032349-0.0059204-0.0053711-0.0083618
	l5.9968262-5.6253662l2.5736694,2.4137573c0.0865479,0.0812378,0.1950684,0.1220703,0.3039551,0.1220703
	c0.1089478,0,0.2173462-0.0408325,0.3043823-0.1220703l2.5717163-2.4128418l5.9958496,5.625
	C18.8716431,13.7713013,18.8707886,13.7739258,18.8691406,13.7758179z M19.0859375,12.680603l-5.5217896-5.180542
	l5.5217896-5.1806641V12.680603z"/>
</svg>
