<?xml version="1.0" encoding="utf-8"?>
<!-- Generator: Adobe Illustrator 22.1.0, SVG Export Plug-In . SVG Version: 6.00 Build 0)  -->
<svg fill="#c9c9c9" version="1.1" id="Layer_1" xmlns="http://www.w3.org/2000/svg" xmlns:xlink="http://www.w3.org/1999/xlink" x="0px" y="0px"
	 viewBox="0 0 21.0000248 21" style="enable-background:new 0 0 21.0000248 21;" xml:space="preserve">
<style type="text/css">
	.st0{fill-rule:evenodd;clip-rule:evenodd;}
	.st1{fill:#231F20;}
</style>
<path d="M10.186059,3.3477173c0-0.2546997,0.2072754-0.4607544,0.4632568-0.4607544
	c4.1054077,0,7.4452524,3.3207397,7.4452524,7.4029541c0,0.2545776-0.2071533,0.4607544-0.4633179,0.4607544
	c-0.2561035,0-0.4633179-0.2061768-0.4633179-0.4607544c0-3.5737915-2.9240732-6.4813843-6.5186167-6.4813843
	C10.3933344,3.8085327,10.186059,3.602417,10.186059,3.3477173z M10.6493158,6.8503418
	c1.907959,0,3.4602661,1.543335,3.4602661,3.4395752c0,0.2545776,0.2070923,0.4607544,0.4632568,0.4607544
	c0.2561035,0,0.4632568-0.2061768,0.4632568-0.4607544c0-2.4046631-1.9680176-4.361084-4.3867798-4.361084
	c-0.2559814,0-0.4632568,0.2059937-0.4632568,0.4607544C10.186059,6.644165,10.3933344,6.8503418,10.6493158,6.8503418z
	 M20.5208988,16.296875c-0.5474243,1.4111938-1.3712769,2.6710815-2.4476318,3.7446899
	c-0.3021851,0.2970581-0.6315918,0.5849609-0.980896,0.8567505l-0.1207275,0.0944824L16.5173588,21
	c-4.0031137,0-8.1491709-1.840332-11.3759165-5.048645C1.7545406,12.5820313-0.0940312,8.3495483,0.003686,4.2738037
	l0.0036621-0.1530762l0.0944824-0.1196289c0.2723999-0.3464966,0.5619507-0.6741333,0.8610229-0.9728394
	C2.041894,1.9564209,3.3095331,1.1365967,4.7315912,0.5880127c0.1266479-0.0490112,0.2741699-0.0741577,0.4375-0.0741577
	c0.4935913,0,1.3024902,0.2614136,1.473999,0.7333984c0.501709,1.3832397,1.1365356,3.1929321,1.5948486,4.921814
	c0.0994873,0.3671265-0.0389404,1.3175049-0.4827881,1.5946655L6.1155634,8.798645
	C6.0051508,8.8670044,5.9613276,8.9893799,5.9431391,9.0812378c-0.0547485,0.2780762,0.0480347,0.6362915,0.267395,0.9359741
	c0.6438599,0.8782959,1.3948975,1.7530518,2.2318726,2.5999146c0.8441772,0.8252563,1.7210083,1.5685425,2.6005249,2.2047729
	c0.4483643,0.3266602,1.0637207,0.3582153,1.2243042,0.0999146l1.0424194-1.6369629
	c0.3221436-0.5003662,1.3165894-0.5057983,1.3265381-0.5057983c0.0985718,0,0.1827393,0.0081177,0.2579346,0.024353
	c2.1236582,0.4714966,3.385499,0.8765259,4.9997568,1.6045532C20.3946781,14.6329956,20.7529545,15.7102051,20.5208988,16.296875z
	 M19.4563847,15.2125244c-1.4944458-0.6641235-2.710083-1.053833-4.7645884-1.5092163
	c-0.296814-0.0053711-0.5726929,0.074707-0.6428833,0.1260376l-0.9966431,1.5820923
	c-0.4465942,0.7180786-1.6695557,0.8008423-2.5557861,0.1547852c-0.914856-0.661438-1.8264771-1.4354858-2.7091675-2.2975464
	C6.9127436,12.3839722,6.132226,11.4741821,5.4623041,10.56073c-0.3724365-0.5084229-0.5325317-1.1276245-0.4285278-1.6567383
	c0.0755615-0.3834229,0.2850952-0.6983643,0.5895386-0.8856201l1.6364136-1.0331421
	c0.0317383-0.0656128,0.1045532-0.4598389,0.0814819-0.5848999c-0.4483643-1.6900635-1.074585-3.4746094-1.569458-4.8399048
	c-0.0330811,0.0072021-0.3483887-0.125061-0.6026611-0.125061c-0.0710449,0-0.1008911,0.0117188-0.1022949,0.0117188
	C3.7647943,1.9492188,2.6046991,2.699707,1.6183711,3.678833C1.3813716,3.9165039,1.1488277,4.1756592,0.9275142,4.4483643
	C0.885461,8.2271729,2.630517,12.1499634,5.7314692,15.2349854l0.0687256,0.0684204
	c3.0507202,3.0327759,6.9578857,4.7750854,10.717164,4.7750854l0.1257935-0.0018311
	c0.2759399-0.220459,0.5366211-0.4517212,0.7759399-0.6884155c0.982605-0.9801025,1.7363892-2.1328125,2.2385864-3.4252319
	C19.7178593,15.8100586,19.5730839,15.3286743,19.4563847,15.2125244z M10.6512079,0
	c-0.2561035,0-0.4633179,0.2060547-0.4633179,0.4607544c0,0.2545776,0.2072144,0.4607544,0.4633179,0.4607544
	c5.1952515,0,9.4222422,4.2026978,9.4222422,9.3684082c0,0.2545776,0.2072754,0.4607544,0.4633179,0.4607544
	s0.4632568-0.2061768,0.4632568-0.4607544C21.0000248,4.6157837,16.3576908,0,10.6512079,0z"/>
</svg>
