<?xml version="1.0" encoding="utf-8"?>
<!-- Generator: Adobe Illustrator 22.1.0, SVG Export Plug-In . SVG Version: 6.00 Build 0)  -->
<svg fill="#ffffff" version="1.1" id="Layer_1" xmlns="http://www.w3.org/2000/svg" xmlns:xlink="http://www.w3.org/1999/xlink" x="0px" y="0px"
	 viewBox="0 0 20.0000267 18.9999714" style="enable-background:new 0 0 20.0000267 18.9999714;" xml:space="preserve">
<style type="text/css">
	.st0{fill-rule:evenodd;clip-rule:evenodd;}
	.st1{fill:#231F20;}
</style>
<path d="M19.2609043,0.0407475L0.3478787,8.0016241c-0.4667358,0.1964722-0.4627075,0.9174194,0.0053711,1.1087646
	l4.6084595,1.8768311l1.7836914,6.2590933c0.1141968,0.4009399,0.5634155,0.5490723,0.8616333,0.2830811l2.5687861-2.2850332
	c0.2693481-0.2393188,0.652771-0.2512817,0.9342041-0.0284424l4.6332397,3.6703482
	c0.3189096,0.2529297,0.770875,0.0622559,0.8509531-0.3583374l3.394043-17.8137207
	C20.0755405,0.2547978,19.6617832-0.1283809,19.2609043,0.0407475z M15.6539087,4.2066412l-7.4329834,7.5388794
	c-0.261291,0.2653198-0.4298091,0.6203613-0.4775386,1.0059814l-0.2532349,2.0472412
	c-0.0335693,0.2734375-0.385498,0.3005371-0.4546509,0.0359497l-0.9737549-3.7333984
	c-0.1115112-0.4259033,0.0510254-0.8806763,0.3961792-1.1131592l9.0065308-6.0525513
	C15.6264429,3.8271244,15.7928858,4.0659552,15.6539087,4.2066412z"/>
</svg>
