<?xml version="1.0" encoding="utf-8"?>
<!-- Generator: Adobe Illustrator 22.1.0, SVG Export Plug-In . SVG Version: 6.00 Build 0)  -->
<svg fill="#ffffff" version="1.1" id="Layer_1" xmlns="http://www.w3.org/2000/svg" xmlns:xlink="http://www.w3.org/1999/xlink" x="0px" y="0px"
	 viewBox="0 0 21 17" style="enable-background:new 0 0 21 17;" xml:space="preserve">
<style type="text/css">
	.st0{fill-rule:evenodd;clip-rule:evenodd;}
	.st1{fill:#231F20;}
</style>
<path d="M21,2.0125122c-0.7809448,0.3413086-1.6130981,0.5675659-2.4806519,0.6773682
	c0.8925171-0.5308838,1.5737305-1.3651733,1.8939819-2.3707886c-0.8321533,0.4942627-1.7509155,0.8434448-2.7300415,1.038269
	C16.8931885,0.519165,15.7670288,0,14.5385742,0c-2.3835449,0-4.3023682,1.9275513-4.3023682,4.2905273
	c0,0.3400269,0.0288696,0.6669312,0.0997314,0.9781494C6.7567139,5.0947266,3.5896606,3.3856201,1.4620972,0.7819824
	C1.0906982,1.4240723,0.8728027,2.1589966,0.8728027,2.9501343c0,1.4855347,0.7678223,2.8023682,1.9122925,3.5647583
	C2.0934448,6.5018311,1.414856,6.3017578,0.8399658,5.9865723c0,0.0131226,0,0.0300903,0,0.0471191
	c0,2.0844727,1.4923096,3.8158569,3.4492798,4.2146606c-0.3504639,0.095459-0.7323608,0.1412354-1.1287842,0.1412354
	c-0.2755737,0-0.553833-0.015686-0.8150635-0.0732422c0.5578613,1.6987305,2.1407471,2.9475708,4.0228271,2.9880981
	c-1.4647217,1.1416016-3.3245239,1.8294678-5.3379517,1.8294678c-0.3530273,0-0.6916504-0.015686-1.0302734-0.0588379
	C1.9070435,16.300354,4.1671753,17,6.6044922,17c7.9222412,0,12.253479-6.5384521,12.253479-12.2059937
	c0-0.1896362-0.0065308-0.3727417-0.0157471-0.5545044C19.6966553,3.635376,20.4146118,2.8808594,21,2.0125122z"/>
</svg>
