<?xml version="1.0" encoding="utf-8"?>
<!-- Generator: Adobe Illustrator 22.1.0, SVG Export Plug-In . SVG Version: 6.00 Build 0)  -->
<svg fill="#ffffff" version="1.1" id="Layer_1" xmlns="http://www.w3.org/2000/svg" xmlns:xlink="http://www.w3.org/1999/xlink" x="0px" y="0px"
	 viewBox="0 0 21.0000114 12" style="enable-background:new 0 0 21.0000114 12;" xml:space="preserve">
<style type="text/css">
	.st0{fill-rule:evenodd;clip-rule:evenodd;}
	.st1{fill:#231F20;}
</style>
<path class="st0" d="M20.8752556,11.2490845c-1.0786133-1.3356323-2.2235718-2.4835205-3.3115234-3.812439
	c-0.5666504-0.6921997-0.3709717-0.7675171-0.057373-1.2612915c0.9671631-1.5222778,1.958313-3.1610107,2.8759766-4.6693115
	c0.4119263-0.6772461,0.2770996-0.9443359-0.371521-0.9443359c-0.9584961,0-1.9169312,0-2.8753662,0
	c-0.760498,0-0.8438721-0.1234741-1.3579092,0.8809204c-0.9321899,1.8206177-2.0496216,4.1682129-3.5724487,4.3066406
	c0.0091553-1.6627808,0.0187378-3.2062988,0.027771-4.8690186C12.2352419,0.4337769,12.1576662,0,11.3913698,0
	c-0.9973755,0-1.9945679,0-2.9919434,0c-0.8682861,0-1.3408813,0.4384155-1.314209,0.7075195
	c0.052063,0.5231323,0.9842529-0.12854,0.9842529,1.3242798c0,1.2390137,0,2.4782104,0,3.7174683
	C6.942029,5.9274902,5.4677248,3.1394043,4.4071169,1.2462158C4.1135988,0.7220459,4.1313601,0.5617065,3.1670046,0.5617065
	c-0.8634033,0-1.7264405,0-2.5896606,0c-0.4632568,0-0.7722168,0.1517944-0.4349365,0.8377075
	c1.713623,3.4857178,5.5899658,10.5944824,9.022583,10.5944824c0.8049927,0,1.6099243,0,2.414856,0
	c0.5896606,0,0.7532959-0.2888794,0.7532959-0.6884155c0-0.7034302,0-1.347229,0-2.1055908
	c1.2958984,0.1340332,2.1537476,1.1350708,3.0760498,2.1414795C15.9998903,11.9859619,16.1872063,12,16.6765862,12
	c1.2237549,0,2.4475708-0.0020142,3.6712036-0.0029907C21.0362053,11.9963989,21.1193352,11.5510254,20.8752556,11.2490845z"/>
</svg>
