<?xml version="1.0" encoding="utf-8"?>
<!-- Generator: Adobe Illustrator 22.1.0, SVG Export Plug-In . SVG Version: 6.00 Build 0)  -->
<svg fill="#0071e3" version="1.1" id="Layer_1" xmlns="http://www.w3.org/2000/svg" xmlns:xlink="http://www.w3.org/1999/xlink" x="0px" y="0px"
	 viewBox="0 0 20.0000153 14" style="enable-background:new 0 0 20.0000153 14;" xml:space="preserve">
<style type="text/css">
	.st0{fill-rule:evenodd;clip-rule:evenodd;}
	.st1{fill:#231F20;}
</style>
<path d="M19.8779297,6.6906738l-6.25-6.5625c-0.1627808-0.1708984-0.4264526-0.1708984-0.5891724,0
	c-0.1627808,0.1708984-0.1627808,0.4477539,0,0.6186523L18.5775146,6.5625H0.416687C0.1863403,6.5625,0,6.7581787,0,7
	s0.1863403,0.4375,0.416687,0.4375h18.1608276l-5.5387573,5.8156738c-0.1627808,0.1708984-0.1627808,0.4477539,0,0.6186523
	C13.1201172,13.9572144,13.2267456,14,13.333374,14c0.1065674,0,0.2131958-0.0427856,0.2945557-0.1281738l6.25-6.5625
	C20.0407104,7.1384277,20.0407104,6.8615723,19.8779297,6.6906738z"/>
</svg>
