<?xml version="1.0" encoding="utf-8"?>
<!-- Generator: Adobe Illustrator 22.1.0, SVG Export Plug-In . SVG Version: 6.00 Build 0)  -->
<svg fill="#848484" version="1.1" id="Layer_1" xmlns="http://www.w3.org/2000/svg" xmlns:xlink="http://www.w3.org/1999/xlink" x="0px" y="0px"
	 viewBox="0 0 28.9999847 28.9999847" style="enable-background:new 0 0 28.9999847 28.9999847;" xml:space="preserve">
<style type="text/css">
	.st0{fill-rule:evenodd;clip-rule:evenodd;}
	.st1{fill:#231F20;}
</style>
<path d="M16.1020966,14.5000458L28.6681976,1.9338837c0.4423828-0.4423828,0.4423828-1.159668,0-1.6020508
	c-0.4424438-0.4423828-1.159729-0.4424438-1.6021118,0L14.4999847,12.897995L1.9338837,0.3318329
	c-0.4424438-0.4424438-1.159729-0.4424438-1.6020508,0c-0.4423828,0.4423828-0.4424438,1.159729,0,1.6020508l12.56604,12.5661621
	l-12.56604,12.5661621c-0.4424438,0.4423828-0.4424438,1.159668,0,1.6020508
	c0.2211304,0.2211914,0.5111084,0.3317261,0.8010254,0.3317261c0.289978,0,0.579834-0.1105347,0.8010864-0.3317261
	l12.56604-12.5661011l12.56604,12.5661011c0.2211914,0.2211914,0.5111694,0.3317261,0.8010864,0.3317261
	s0.579834-0.1105347,0.8010864-0.3317261c0.4423828-0.4424438,0.4423828-1.159729,0-1.6020508L16.1020966,14.5000458z"/>
</svg>
