<svg version="1.1" id="Layer_1" xmlns="http://www.w3.org/2000/svg" xmlns:xlink="http://www.w3.org/1999/xlink" x="0px" y="0px"
	 viewBox="0 0 21.0000038 22" style="enable-background:new 0 0 21.0000038 22;" xml:space="preserve">
<style type="text/css">
	.st0{fill-rule:evenodd;clip-rule:evenodd;}
	.st1{fill:#231F20;}
</style>
<path d="M20.8852539,21.2967529l-6.1184082-6.4185181c1.5605469-1.5787964,2.5274048-3.7553101,2.5274048-6.1557007
	C17.2942505,3.9126587,13.4154053,0,8.6471558,0C3.8788452,0,0,3.9126587,0,8.7225342
	c0,4.8099365,3.8788452,8.7225952,8.6471558,8.7225952c2.0930176,0,4.013916-0.7546997,5.5110474-2.007019l6.1333008,6.4343872
	C20.3721924,21.9576416,20.4801025,22,20.5883789,22c0.1029663,0,0.2055054-0.0386353,0.2853394-0.1159058
	C21.0375977,21.7250366,21.0425415,21.4620972,20.8852539,21.2967529z M8.6471558,16.6144409
	c-4.3140869,0-7.8236084-3.5401611-7.8236084-7.8919067c0-4.3516846,3.5095215-7.8918457,7.8236084-7.8918457
	s7.8235474,3.5401611,7.8235474,7.8918457C16.4707031,13.0742798,12.9608154,16.6144409,8.6471558,16.6144409z"/>
</svg>
