<?xml version="1.0" encoding="utf-8"?>
<!-- Generator: Adobe Illustrator 22.1.0, SVG Export Plug-In . SVG Version: 6.00 Build 0)  -->
<svg fill="white" version="1.1" id="Layer_1" xmlns="http://www.w3.org/2000/svg" xmlns:xlink="http://www.w3.org/1999/xlink" x="0px" y="0px"
	 viewBox="0 0 206.0000305 143" style="enable-background:new 0 0 206.0000305 143;" xml:space="preserve">
<style type="text/css">
	.st0{fill-rule:evenodd;clip-rule:evenodd;}
	.st1{fill:#231F20;}
</style>
<path d="M45.6829224,0C20.4918823,0,0,20.1512451,0,44.9238892c0,23.8977661,19.0710449,43.4985352,43.0332031,44.8526611
	c0.414917,4.4049072,0.1036377,16.3955688-11.5805054,33.0753784c-0.8832397,1.2582397-0.7229614,2.9551392,0.3740845,4.0339355
	c4.78125,4.7017822,7.736145,7.6629639,9.8042603,9.7340698c2.7067261,2.7079468,3.9421387,3.9443359,5.7495117,5.5580444
	C47.9934692,142.7249146,48.7666016,143,49.543335,143c0.7541504,0,1.5054321-0.2595825,2.1121826-0.7758179
	c20.3599243-17.4217529,42.9768677-53.418457,39.7045898-97.5291748C89.442627,18.7974243,70.2331543,0,45.6829224,0z
	 M49.5745239,135.5101318c-0.87677-0.8498535-1.8765869-1.8513794-3.3508301-3.3261719
	c-1.7915649-1.7956543-4.2498169-4.2564087-7.9779053-7.9348755c14.1800537-21.4866943,11.5015869-36.7908325,10.3292847-38.9857178
	c-0.5565186-1.041687-1.6976318-1.7434082-2.8921509-1.7434082c-21.6390381,0-39.2452393-17.3135376-39.2452393-38.5960693
	c0-21.2797241,17.6062012-38.5932007,39.2452393-38.5932007c21.0800171,0,37.5891724,16.3275146,39.2581787,38.8217163
	C88.6189575,94.7657471,58.6340332,126.9785767,49.5745239,135.5101318z M205.6829224,44.6950073v-0.0031738
	C203.7589722,18.7974243,184.5466309,0,160.0028076,0c-25.1913452,0-45.6864624,20.1512451-45.6864624,44.9238892
	c0,23.8977661,19.0742798,43.4985352,43.0396118,44.8526611c0.414917,4.4017334,0.1004639,16.3860474-11.5866089,33.0753784
	c-0.8832397,1.2582397-0.7229004,2.9551392,0.3740845,4.0339355c4.7622681,4.6831055,7.7107544,7.6382446,9.7791748,9.7061768
	c2.7189941,2.7263184,3.9608154,3.9690552,5.7775269,5.5887451C162.3129883,142.7249146,163.0894165,143,163.862915,143
	c0.7545166,0,1.5057373-0.2595825,2.1121826-0.7789917C186.335022,124.7992554,208.9519653,88.8029175,205.6829224,44.6950073z
	 M163.894104,135.5101318c-0.8832397-0.8562012-1.8920288-1.8637695-3.3791504-3.3536987
	c-1.791626-1.7931519-4.2401733-4.2472534-7.9528198-7.9073486c14.1799927-21.4898682,11.505127-36.7908325,10.3357544-38.9857178
	c-0.5565186-1.0385132-1.7005005-1.7434082-2.8950806-1.7434082c-21.6425781,0-39.2487183-17.3135376-39.2487183-38.5960693
	c0-21.2797241,17.6061401-38.5932007,39.2487183-38.5932007c21.076416,0,37.5888672,16.3275146,39.2610474,38.8248901v-0.0031738
	C202.9384766,94.7594604,172.9535522,126.9785767,163.894104,135.5101318z"/>
</svg>
