<?xml version="1.0" encoding="utf-8"?>
<!-- Generator: Adobe Illustrator 22.1.0, SVG Export Plug-In . SVG Version: 6.00 Build 0)  -->
<svg fill="#0071e3" version="1.1" id="Layer_1" xmlns="http://www.w3.org/2000/svg" xmlns:xlink="http://www.w3.org/1999/xlink" x="0px" y="0px"
	 viewBox="0 0 26.0000229 17" style="enable-background:new 0 0 26.0000229 17;" xml:space="preserve">
<style type="text/css">
	.st0{fill-rule:evenodd;clip-rule:evenodd;}
	.st1{fill:#231F20;}
</style>
<path d="M25.8413086,8.1243896l-8.125-7.96875c-0.2116089-0.2075195-0.5543823-0.2075195-0.7659302,0
	c-0.2116089,0.2075195-0.2116089,0.5437012,0,0.7512207L24.1507568,7.96875H0.541687C0.2422485,7.96875,0,8.2063599,0,8.5
	s0.2422485,0.53125,0.541687,0.53125h23.6090698l-7.2003784,7.0618896c-0.2116089,0.2075195-0.2116089,0.5437012,0,0.7512207
	C17.0561523,16.9480591,17.1947632,17,17.333374,17c0.1385498,0,0.2771606-0.0519409,0.3829956-0.1556396l8.125-7.96875
	C26.0529175,8.6680908,26.0529175,8.3319092,25.8413086,8.1243896z"/>
</svg>
